<?xml version="1.0" encoding="utf-8"?>
<!-- Svg Vector Icons : http://www.onlinewebfonts.com/icon -->
<!DOCTYPE svg PUBLIC "-//W3C//DTD SVG 1.1//EN" "http://www.w3.org/Graphics/SVG/1.1/DTD/svg11.dtd">
<svg version="1.1" xmlns="http://www.w3.org/2000/svg" xmlns:xlink="http://www.w3.org/1999/xlink" x="0px" y="0px" viewBox="0 0 1000 1000" enable-background="new 0 0 1000 1000" xml:space="preserve">
<metadata> Svg Vector Icons : http://www.onlinewebfonts.com/icon </metadata>
<g><path fill="#95cf24" d="M314.8,230.3c-13.7-13.7-35.8-13.7-49.5,0L21.2,474.3c-0.3,0.3-0.6,0.6-1,0.9C13.4,482.1,10,491,10,500c0,9,3.4,17.9,10.3,24.8c0.3,0.3,0.6,0.6,1,0.9l244.1,244.1c13.7,13.7,35.8,13.7,49.5,0c13.7-13.7,13.7-35.8,0-49.5L94.5,500l220.3-220.3C328.4,266.1,328.4,243.9,314.8,230.3z M581.7,36.8c-19-3.4-37.2,9.4-40.5,28.4L389.9,922.6c-3.4,19,9.4,37.2,28.4,40.5c19,3.4,37.2-9.4,40.5-28.4L610.1,77.4C613.4,58.3,600.7,40.2,581.7,36.8z M979.8,475.2c-0.3-0.3-0.6-0.6-1-0.9L734.7,230.3c-13.7-13.7-35.8-13.7-49.5,0c-13.7,13.7-13.7,35.8,0,49.5L905.5,500L685.2,720.3c-13.7,13.7-13.7,35.8,0,49.5c13.7,13.7,35.8,13.7,49.5,0l244.1-244.1c0.3-0.3,0.6-0.6,1-0.9c6.8-6.8,10.3-15.8,10.3-24.8C990,491,986.6,482.1,979.8,475.2z"/></g>
</svg>