<svg xmlns="http://www.w3.org/2000/svg" width="20" height="20" fill="none" viewBox="0 0 20 20">
    <path fill="#95cf24" fill-rule="evenodd" d="M5.833 3.333c-.22 0-.433.088-.589.244-.156.157-.244.369-.244.59v11.666c0 .221.088.433.244.59.156.156.368.244.59.244h8.333c.22 0 .433-.088.589-.245.156-.156.244-.368.244-.589V7.845l-4.512-4.512H5.833zM4.066 2.4c.468-.469 1.104-.732 1.767-.732h4.655c.442 0 .866.175 1.179.488m0 0l4.511 4.511c.313.313.489.737.489 1.179v7.988c0 .663-.264 1.3-.733 1.768-.468.469-1.104.732-1.767.732H5.833c-.663 0-1.299-.263-1.767-.732-.47-.469-.733-1.105-.733-1.768V4.167c0-.663.264-1.3.733-1.768M10 7.5c.46 0 .833.373.833.833v2.988l1.078-1.077c.325-.325.853-.325 1.178 0 .326.325.326.853 0 1.178l-2.5 2.5c-.325.326-.853.326-1.178 0l-2.5-2.5c-.326-.325-.326-.853 0-1.178.325-.325.853-.325 1.178 0l1.078 1.077V8.333c0-.46.373-.833.833-.833z" clip-rule="evenodd"/>
</svg>
