<svg width="23" height="23" viewBox="0 0 23 23" fill="none" xmlns="http://www.w3.org/2000/svg">
<path d="M11.5 23C17.8513 23 23 17.8513 23 11.5C23 5.14873 17.8513 0 11.5 0C5.14873 0 0 5.14873 0 11.5C0 17.8513 5.14873 23 11.5 23Z" fill="#EBECF0"/>
<path d="M8.81802 3.04287C8.93435 3.04293 9.04732 3.08182 9.13904 3.15337C9.23076 3.22492 9.29598 3.32503 9.32434 3.43785C9.35271 3.55066 9.34261 3.66972 9.29564 3.77615C9.24867 3.88257 9.16753 3.97027 9.06506 4.02534C8.9626 4.08042 8.84469 4.09971 8.73001 4.08018C8.61534 4.06064 8.51047 4.00339 8.43203 3.91749C8.35358 3.8316 8.30605 3.72197 8.29697 3.606C8.28789 3.49003 8.31779 3.37435 8.38191 3.27729C8.42948 3.20514 8.49424 3.14594 8.57037 3.10502C8.6465 3.0641 8.73159 3.04275 8.81802 3.04287ZM8.81802 2.82172C8.63947 2.82147 8.46678 2.88546 8.33151 3.00201C8.19624 3.11856 8.10742 3.27989 8.08126 3.45652C8.05511 3.63315 8.09338 3.81329 8.18907 3.96404C8.28477 4.11479 8.4315 4.22608 8.60246 4.27758C8.77343 4.32908 8.95721 4.31737 9.12025 4.24456C9.28329 4.17175 9.4147 4.04272 9.49046 3.88103C9.56622 3.71935 9.58129 3.5358 9.5329 3.36392C9.48452 3.19205 9.37592 3.04331 9.22693 2.94489C9.10564 2.86467 8.96345 2.82184 8.81802 2.82172Z" fill="black"/>
<path d="M4.48627 6.85669C4.37259 7.04836 4.26747 7.24474 4.1709 7.44584" stroke="black" stroke-width="0.4" stroke-linecap="round" stroke-linejoin="round"/>
<path d="M7.16187 4.21582C6.52005 4.58152 5.93788 5.04316 5.43555 5.58476" stroke="black" stroke-width="0.4" stroke-linecap="round" stroke-linejoin="round"/>
<path d="M14.2384 3.75433C13.0459 3.26678 11.7496 3.08833 10.4697 3.23551" stroke="black" stroke-width="0.4" stroke-linecap="round" stroke-linejoin="round"/>
<path d="M15.6725 17.7616C15.7867 17.7616 15.8976 17.7991 15.9885 17.8683C16.0793 17.9374 16.1449 18.0344 16.1754 18.1445C16.2058 18.2545 16.1994 18.3715 16.157 18.4775C16.1146 18.5835 16.0387 18.6727 15.9408 18.7314C15.843 18.7901 15.7285 18.8152 15.6151 18.8027C15.5016 18.7902 15.3953 18.7409 15.3126 18.6623C15.2298 18.5837 15.1751 18.4801 15.1568 18.3675C15.1384 18.2548 15.1576 18.1392 15.2112 18.0384C15.2556 17.9547 15.322 17.8846 15.4033 17.8358C15.4846 17.787 15.5777 17.7613 15.6725 17.7616ZM15.6725 17.5404C15.491 17.5403 15.3157 17.6067 15.1798 17.7269C15.0438 17.8471 14.9565 18.0129 14.9343 18.1931C14.9121 18.3732 14.9566 18.5552 15.0593 18.7048C15.1621 18.8545 15.316 18.9613 15.4921 19.0053C15.6682 19.0493 15.8543 19.0273 16.0153 18.9435C16.1764 18.8598 16.3012 18.72 16.3663 18.5506C16.4314 18.3812 16.4323 18.1938 16.3687 18.0238C16.3052 17.8537 16.1817 17.7128 16.0215 17.6275C15.9141 17.5703 15.7942 17.5404 15.6725 17.5404Z" fill="black"/>
<path d="M14.2852 19.071C13.6903 19.2977 13.0649 19.434 12.4297 19.4755" stroke="black" stroke-width="0.4" stroke-linecap="round" stroke-linejoin="round"/>
<path d="M18.2276 15.1152C17.9163 15.943 17.4458 16.7018 16.8428 17.3488" stroke="black" stroke-width="0.4" stroke-linecap="round" stroke-linejoin="round"/>
<path d="M9.73338 15.4731C9.7102 15.4731 9.68762 15.4658 9.66881 15.4522C9.65 15.4387 9.63592 15.4196 9.62855 15.3976L9.47551 14.9416C9.46682 14.9158 9.46795 14.8877 9.47868 14.8627C9.48942 14.8377 9.509 14.8175 9.53368 14.8061L9.99589 14.5918C10.1294 14.5297 10.2373 14.4231 10.3009 14.2903C10.3646 14.1575 10.3801 14.0067 10.3449 13.8637L10.1757 13.1804C10.172 13.1656 10.1715 13.1502 10.174 13.1352C10.1766 13.1203 10.1822 13.1059 10.1905 13.0932C10.1989 13.0805 10.2097 13.0696 10.2225 13.0613C10.2352 13.0529 10.2496 13.0473 10.2646 13.0448L10.6943 12.9722C10.7004 12.9712 10.7065 12.9707 10.7126 12.9707C10.7374 12.9707 10.7615 12.979 10.781 12.9943C10.8005 13.0097 10.8143 13.0311 10.8201 13.0552L10.9928 13.7682C11.0596 14.0495 11.0287 14.3451 10.905 14.6064C10.7813 14.8677 10.5723 15.0791 10.3124 15.2057L9.78159 15.4616C9.7666 15.469 9.75011 15.4729 9.73338 15.4731Z" fill="#D11F40"/>
<path d="M10.7133 13.0806L10.886 13.7933C10.9483 14.0501 10.9206 14.3205 10.8076 14.5593C10.6946 14.7981 10.503 14.991 10.265 15.1057L9.73424 15.3615L9.5812 14.9057L10.0434 14.6914C10.2004 14.6187 10.3272 14.4936 10.402 14.3376C10.4768 14.1816 10.4949 14.0044 10.4532 13.8365L10.2838 13.1531L10.7135 13.0806H10.7133ZM10.7135 12.8594C10.7011 12.8595 10.6888 12.8605 10.6766 12.8625L10.2469 12.935C10.2169 12.9402 10.1884 12.9515 10.163 12.9682C10.1376 12.9849 10.1159 13.0067 10.0993 13.0322C10.0827 13.0576 10.0715 13.0862 10.0665 13.1162C10.0614 13.1462 10.0626 13.1769 10.07 13.2064L10.2391 13.8895C10.2684 14.0076 10.2557 14.1321 10.2032 14.2418C10.1508 14.3514 10.0618 14.4395 9.95163 14.4909L9.48942 14.7049C9.44002 14.7278 9.40081 14.7682 9.3793 14.8182C9.3578 14.8682 9.35551 14.9244 9.37287 14.9761L9.52591 15.4321C9.53597 15.4617 9.55219 15.4888 9.57349 15.5117C9.5948 15.5346 9.62072 15.5527 9.64954 15.5648C9.67679 15.5761 9.70603 15.582 9.73557 15.582C9.76882 15.582 9.80162 15.5744 9.83155 15.5599L10.3623 15.304C10.645 15.1664 10.8724 14.9364 11.0069 14.6522C11.1414 14.368 11.1751 14.0464 11.1023 13.7405L10.9296 13.0277C10.9179 12.9795 10.8904 12.9366 10.8515 12.906C10.8125 12.8753 10.7644 12.8586 10.7148 12.8585L10.7135 12.8594Z" fill="black"/>
<path d="M13.7615 10.9781C14.737 10.9781 15.5278 10.1873 15.5278 9.21173C15.5278 8.2362 14.737 7.44537 13.7615 7.44537C12.7859 7.44537 11.9951 8.2362 11.9951 9.21173C11.9951 10.1873 12.7859 10.9781 13.7615 10.9781Z" fill="white" stroke="black" stroke-width="0.4" stroke-linecap="round" stroke-linejoin="round"/>
<path d="M12.2173 4.83767L10.2468 6.54475C8.49436 8.06296 6.45218 9.20992 4.24378 9.91624L4.13962 9.94964C3.60786 10.1122 3.15719 10.4697 2.878 10.9506C2.5988 11.4314 2.51172 12.0001 2.63422 12.5424C2.7052 12.8288 2.83423 13.0976 3.01333 13.332C3.19243 13.5665 3.41777 13.7617 3.67538 13.9055C3.933 14.0493 4.21741 14.1387 4.51099 14.1681C4.80456 14.1975 5.10104 14.1663 5.38206 14.0764L5.41258 14.0666C7.77222 13.3118 10.2674 13.0774 12.7264 13.3795L15.0264 13.6619C15.1076 13.6721 15.1901 13.6617 15.2662 13.6316C15.3423 13.6014 15.4095 13.5526 15.4618 13.4895C15.514 13.4265 15.5494 13.3513 15.5649 13.2709C15.5803 13.1905 15.5752 13.1075 15.55 13.0296L13.0001 5.05749C12.9757 4.98064 12.9326 4.91107 12.8746 4.85503C12.8166 4.79898 12.7456 4.75824 12.668 4.73644C12.5904 4.71464 12.5085 4.71248 12.4298 4.73015C12.3512 4.74782 12.2781 4.78477 12.2173 4.83767Z" fill="white" stroke="black" stroke-width="0.4" stroke-linecap="round" stroke-linejoin="round"/>
<path d="M6.08594 13.9992C6.08594 13.9992 7.97348 14.7978 9.25794 18.1127C9.3382 18.3202 9.49463 18.4893 9.6953 18.5855C9.89598 18.6816 10.1258 18.6976 10.3378 18.6302C10.4545 18.5928 10.562 18.5313 10.6533 18.4497C10.7446 18.3681 10.8178 18.2683 10.868 18.1566C10.9183 18.0449 10.9445 17.9239 10.9449 17.8014C10.9453 17.6789 10.92 17.5577 10.8706 17.4457L8.85412 12.8757L6.08594 13.9992Z" fill="white" stroke="black" stroke-width="0.4" stroke-linecap="round" stroke-linejoin="round"/>
<path d="M5.43184 14.1715C5.40841 14.1715 5.38558 14.164 5.36666 14.1502C5.34774 14.1363 5.3337 14.1169 5.32658 14.0945L4.01403 9.99124C4.0052 9.96358 4.0076 9.93356 4.02072 9.90766C4.03383 9.88176 4.05661 9.86205 4.08413 9.8528L4.10625 9.84418L4.21019 9.81078C5.87172 9.27949 7.44157 8.49561 8.8646 7.48668C8.87879 7.4766 8.89515 7.47001 8.91237 7.46745C8.92959 7.46489 8.94717 7.46643 8.96368 7.47195C8.98019 7.47747 8.99516 7.48681 9.00738 7.4992C9.0196 7.5116 9.02872 7.5267 9.034 7.54329L10.8495 13.2194C10.8548 13.236 10.8561 13.2536 10.8534 13.2708C10.8506 13.288 10.8438 13.3043 10.8335 13.3184C10.8233 13.3325 10.8098 13.3439 10.7943 13.3518C10.7788 13.3597 10.7616 13.3638 10.7442 13.3638H10.6367C8.88172 13.3631 7.13719 13.6339 5.46502 14.1666C5.45426 14.1699 5.44308 14.1715 5.43184 14.1715Z" fill="#D11F40"/>
<path d="M8.92852 7.57693L10.7442 13.2533H10.6365C8.8702 13.253 7.11447 13.5255 5.43141 14.0614L4.11997 9.95743C4.12705 9.955 4.1339 9.9519 4.14209 9.94969L4.24603 9.91629C5.91812 9.38104 7.49805 8.59204 8.93051 7.57693H8.92852ZM8.93051 7.35577C8.88472 7.35578 8.84005 7.36999 8.80268 7.39646C7.38878 8.39868 5.8292 9.17755 4.17858 9.70576L4.07464 9.73893C4.06645 9.74158 4.05739 9.7449 4.04832 9.74844C3.99358 9.7671 3.94839 9.80658 3.92256 9.85833C3.89673 9.91007 3.89233 9.96991 3.91032 10.0249L5.22287 14.1284C5.24073 14.1842 5.28002 14.2306 5.3321 14.2575C5.38418 14.2844 5.4448 14.2895 5.50064 14.2717C7.16185 13.7423 8.89497 13.4733 10.6385 13.474H10.7446H10.7462C10.781 13.474 10.8153 13.4658 10.8464 13.45C10.8774 13.4342 10.9043 13.4113 10.9248 13.3832C10.9453 13.3551 10.9589 13.3225 10.9644 13.2881C10.97 13.2537 10.9673 13.2185 10.9567 13.1854L9.14016 7.50948C9.12954 7.47639 9.11127 7.44627 9.08683 7.42156C9.06239 7.39686 9.03248 7.37826 8.99951 7.36727C8.97693 7.35963 8.95324 7.35574 8.9294 7.35577H8.93051Z" fill="black"/>
<path d="M17.1335 8.52022C17.0559 8.52037 16.9807 8.4927 16.9216 8.44222C16.8625 8.39174 16.8235 8.3218 16.8115 8.24503C16.7995 8.16825 16.8154 8.08973 16.8563 8.02367C16.8972 7.95761 16.9604 7.90836 17.0345 7.88484L19.0275 7.24725C19.0596 7.23713 19.0931 7.23198 19.1268 7.232C19.2045 7.23185 19.2797 7.25952 19.3388 7.30999C19.3978 7.36047 19.4369 7.43042 19.4489 7.50719C19.4608 7.58396 19.4449 7.66248 19.404 7.72855C19.3631 7.79461 19.2999 7.84386 19.2259 7.86737L17.2328 8.50496C17.2007 8.51508 17.1672 8.52023 17.1335 8.52022Z" fill="#D11F40"/>
<path d="M19.127 7.34255C19.1787 7.34197 19.2288 7.35997 19.2682 7.39329C19.3076 7.4266 19.3338 7.47298 19.3418 7.52397C19.3499 7.57496 19.3393 7.62715 19.312 7.67099C19.2848 7.71483 19.2427 7.7474 19.1934 7.76274L17.2001 8.40011C17.1787 8.4071 17.1563 8.41061 17.1338 8.41051C17.0822 8.41109 17.0321 8.39309 16.9926 8.35977C16.9532 8.32646 16.927 8.28007 16.919 8.22908C16.9109 8.17809 16.9215 8.12591 16.9488 8.08207C16.976 8.03823 17.0181 8.00566 17.0674 7.99032L19.0607 7.35272C19.0821 7.34581 19.1045 7.34237 19.127 7.34255ZM19.127 7.1214C19.082 7.12139 19.0372 7.12833 18.9943 7.14196L17.0011 7.77956C16.9454 7.796 16.8935 7.82342 16.8485 7.86018C16.8036 7.89694 16.7664 7.94232 16.7392 7.99364C16.712 8.04497 16.6954 8.1012 16.6902 8.15906C16.685 8.21691 16.6915 8.27521 16.7092 8.33054C16.7268 8.38586 16.7554 8.43711 16.7931 8.48125C16.8309 8.52539 16.8771 8.56155 16.929 8.5876C16.9809 8.61365 17.0375 8.62907 17.0954 8.63296C17.1534 8.63684 17.2115 8.6291 17.2665 8.61021L19.2595 7.97262C19.3586 7.94104 19.4432 7.87505 19.4979 7.78657C19.5526 7.69809 19.5739 7.59295 19.5579 7.49016C19.5419 7.38736 19.4896 7.29368 19.4105 7.22606C19.3315 7.15843 19.2308 7.12131 19.1268 7.1214H19.127Z" fill="black"/>
<path d="M18.9117 11.3173C18.86 11.3172 18.8089 11.3049 18.7629 11.2812L16.9028 10.3225C16.8279 10.2819 16.772 10.2137 16.7469 10.1323C16.7218 10.051 16.7296 9.96306 16.7685 9.88737C16.8075 9.81169 16.8745 9.75427 16.9553 9.72743C17.0361 9.70058 17.1242 9.70645 17.2007 9.74376L19.061 10.7025C19.1258 10.7359 19.1776 10.7902 19.2078 10.8566C19.2381 10.923 19.2452 10.9976 19.228 11.0685C19.2108 11.1395 19.1703 11.2025 19.1129 11.2476C19.0555 11.2927 18.9847 11.3173 18.9117 11.3173Z" fill="#D11F40"/>
<path d="M17.0519 9.81838C17.086 9.81843 17.1197 9.82662 17.1501 9.84227L19.0102 10.801C19.0608 10.8271 19.0991 10.8722 19.1164 10.9265C19.1338 10.9808 19.1289 11.0397 19.1028 11.0903C19.0767 11.141 19.0315 11.1792 18.9772 11.1966C18.923 11.2139 18.864 11.209 18.8134 11.1829L16.9532 10.2242C16.9103 10.2022 16.8761 10.1664 16.856 10.1225C16.8359 10.0786 16.8312 10.0293 16.8426 9.98241C16.854 9.93553 16.8808 9.89385 16.9188 9.86409C16.9568 9.83434 17.0036 9.81824 17.0519 9.81838ZM17.0519 9.59723C16.9541 9.59728 16.8592 9.63019 16.7824 9.69067C16.7056 9.75115 16.6514 9.8357 16.6284 9.93073C16.6054 10.0258 16.6151 10.1257 16.6558 10.2146C16.6965 10.3035 16.7659 10.3761 16.8528 10.4208L18.713 11.3793C18.764 11.4084 18.8205 11.4269 18.8789 11.4337C18.9373 11.4405 18.9964 11.4354 19.0528 11.4187C19.1092 11.402 19.1616 11.374 19.2069 11.3366C19.2522 11.2991 19.2894 11.2528 19.3164 11.2006C19.3434 11.1483 19.3595 11.0912 19.3638 11.0325C19.3681 10.9739 19.3604 10.915 19.3414 10.8594C19.3223 10.8038 19.2922 10.7526 19.2529 10.7089C19.2135 10.6652 19.1657 10.63 19.1124 10.6052L17.2522 9.64677C17.1907 9.61496 17.1225 9.59828 17.0532 9.59811L17.0519 9.59723Z" fill="black"/>
<path d="M16 7.07053C15.9442 7.07042 15.8893 7.05599 15.8407 7.02861C15.7921 7.00123 15.7513 6.96182 15.7223 6.91416C15.6933 6.8665 15.677 6.81219 15.675 6.75643C15.673 6.70067 15.6854 6.64533 15.7109 6.59572L16.6694 4.73559C16.6884 4.69667 16.715 4.66194 16.7477 4.63344C16.7803 4.60493 16.8183 4.58323 16.8594 4.56961C16.9006 4.55599 16.944 4.55071 16.9872 4.55409C17.0304 4.55748 17.0725 4.56944 17.111 4.5893C17.1495 4.60916 17.1837 4.63651 17.2115 4.66974C17.2393 4.70297 17.2602 4.74142 17.2729 4.78283C17.2857 4.82424 17.29 4.86779 17.2857 4.9109C17.2815 4.95402 17.2686 4.99584 17.2479 5.03393L16.2894 6.89405C16.2621 6.94729 16.2207 6.99194 16.1696 7.02308C16.1185 7.05423 16.0598 7.07064 16 7.07053Z" fill="#D11F40"/>
<path d="M16.9584 4.66996C16.9926 4.66987 17.0263 4.67807 17.0566 4.69384C17.1072 4.71999 17.1454 4.76516 17.1628 4.81943C17.1802 4.8737 17.1753 4.93264 17.1493 4.98333L16.1906 6.84412C16.1645 6.89477 16.1193 6.93297 16.065 6.95033C16.0108 6.96769 15.9518 6.96277 15.9012 6.93667C15.8505 6.91057 15.8123 6.86542 15.795 6.81115C15.7776 6.75688 15.7825 6.69794 15.8086 6.64729L16.7673 4.78695C16.7854 4.75187 16.8128 4.72246 16.8465 4.70193C16.8802 4.68141 16.9189 4.67058 16.9584 4.67062V4.66996ZM16.9584 4.44946C16.8782 4.44925 16.7996 4.47123 16.7311 4.51295C16.6626 4.55468 16.6071 4.61452 16.5705 4.68588L15.612 6.546C15.5857 6.59689 15.5698 6.65245 15.565 6.70952C15.5602 6.76659 15.5668 6.82404 15.5842 6.87858C15.6017 6.93312 15.6297 6.98368 15.6667 7.02737C15.7038 7.07105 15.7491 7.10701 15.8 7.13317C15.8509 7.15941 15.9065 7.17537 15.9635 7.18013C16.0206 7.18488 16.078 7.17834 16.1325 7.16089C16.1871 7.14343 16.2376 7.11539 16.2813 7.07838C16.325 7.04137 16.361 6.99611 16.3872 6.94519L17.3456 5.08528C17.3799 5.01884 17.3966 4.9447 17.3939 4.86998C17.3913 4.79526 17.3695 4.72248 17.3306 4.65863C17.2917 4.59477 17.237 4.54199 17.1719 4.50536C17.1067 4.46873 17.0332 4.44948 16.9584 4.44946Z" fill="black"/>
</svg>
